<svg width="12" height="12" viewBox="0 0 12 12" fill="none" xmlns="http://www.w3.org/2000/svg">
<path d="M3.6 0H8.4C9.35478 0 10.2705 0.379285 10.9456 1.05442C11.6207 1.72955 12 2.64522 12 3.6V8.4C12 9.35478 11.6207 10.2705 10.9456 10.9456C10.2705 11.6207 9.35478 12 8.4 12H3.6C2.64522 12 1.72955 11.6207 1.05442 10.9456C0.379285 10.2705 0 9.35478 0 8.4L0 3.6C0 2.64522 0.379285 1.72955 1.05442 1.05442C1.72955 0.379285 2.64522 0 3.6 0V0ZM7.2 5.4C7.04087 5.4 6.88826 5.46321 6.77574 5.57574C6.66321 5.68826 6.6 5.84087 6.6 6C6.6 6.15913 6.66321 6.31174 6.77574 6.42426C6.88826 6.53679 7.04087 6.6 7.2 6.6H9C9.15913 6.6 9.31174 6.53679 9.42426 6.42426C9.53679 6.31174 9.6 6.15913 9.6 6C9.6 5.84087 9.53679 5.68826 9.42426 5.57574C9.31174 5.46321 9.15913 5.4 9 5.4H7.2ZM6 7.8C5.84087 7.8 5.68826 7.86321 5.57574 7.97574C5.46321 8.08826 5.4 8.24087 5.4 8.4C5.4 8.55913 5.46321 8.71174 5.57574 8.82426C5.68826 8.93679 5.84087 9 6 9H9C9.15913 9 9.31174 8.93679 9.42426 8.82426C9.53679 8.71174 9.6 8.55913 9.6 8.4C9.6 8.24087 9.53679 8.08826 9.42426 7.97574C9.31174 7.86321 9.15913 7.8 9 7.8H6ZM6 3C5.84087 3 5.68826 3.06321 5.57574 3.17574C5.46321 3.28826 5.4 3.44087 5.4 3.6C5.4 3.75913 5.46321 3.91174 5.57574 4.02426C5.68826 4.13679 5.84087 4.2 6 4.2H9C9.15913 4.2 9.31174 4.13679 9.42426 4.02426C9.53679 3.91174 9.6 3.75913 9.6 3.6C9.6 3.44087 9.53679 3.28826 9.42426 3.17574C9.31174 3.06321 9.15913 3 9 3H6ZM3.4968 6.1458L3.0726 5.7216C3.01725 5.66429 2.95105 5.61858 2.87784 5.58714C2.80464 5.55569 2.72591 5.53914 2.64624 5.53845C2.56657 5.53776 2.48757 5.55294 2.41383 5.58311C2.34009 5.61328 2.2731 5.65783 2.21676 5.71416C2.16043 5.7705 2.11588 5.83749 2.08571 5.91123C2.05554 5.98497 2.04036 6.06397 2.04105 6.14364C2.04174 6.22331 2.05829 6.30204 2.08974 6.37524C2.12118 6.44845 2.16689 6.51465 2.2242 6.57L3.0726 7.4184C3.12832 7.47419 3.1945 7.51844 3.26734 7.54864C3.34017 7.57883 3.41825 7.59437 3.4971 7.59437C3.57595 7.59437 3.65403 7.57883 3.72686 7.54864C3.7997 7.51844 3.86588 7.47419 3.9216 7.4184L5.6184 5.7216C5.73106 5.6091 5.79442 5.45644 5.79453 5.29722C5.79465 5.13801 5.7315 4.98526 5.619 4.8726C5.5065 4.75994 5.35384 4.69658 5.19462 4.69647C5.03541 4.69635 4.88266 4.7595 4.77 4.872L3.4968 6.1452V6.1458Z" fill="white"/>
</svg>
