<svg width="8" height="10" viewBox="0 0 8 10" fill="none" xmlns="http://www.w3.org/2000/svg">
<path d="M4.875 0H3.125C2.84828 8.3603e-06 2.58127 0.102003 2.37502 0.286486C2.16877 0.470968 2.03775 0.724995 2.007 1H1.125C0.826631 1 0.540483 1.11853 0.329505 1.3295C0.118527 1.54048 0 1.82663 0 2.125V8.875C0 9.17337 0.118527 9.45952 0.329505 9.6705C0.540483 9.88147 0.826631 10 1.125 10H6.875C7.02274 10 7.16903 9.9709 7.30552 9.91436C7.44201 9.85783 7.56603 9.77496 7.6705 9.6705C7.77496 9.56603 7.85783 9.44201 7.91436 9.30552C7.9709 9.16903 8 9.02274 8 8.875V2.125C8 1.97726 7.9709 1.83097 7.91436 1.69448C7.85783 1.55799 7.77496 1.43397 7.6705 1.3295C7.56603 1.22504 7.44201 1.14217 7.30552 1.08564C7.16903 1.0291 7.02274 1 6.875 1H5.993C5.96225 0.724995 5.83123 0.470968 5.62498 0.286486C5.41873 0.102003 5.15172 8.3603e-06 4.875 0ZM3.125 0.75H4.875C4.97446 0.75 5.06984 0.789509 5.14016 0.859835C5.21049 0.930161 5.25 1.02554 5.25 1.125C5.25 1.22446 5.21049 1.31984 5.14016 1.39017C5.06984 1.46049 4.97446 1.5 4.875 1.5H3.125C3.02554 1.5 2.93016 1.46049 2.85984 1.39017C2.78951 1.31984 2.75 1.22446 2.75 1.125C2.75 1.02554 2.78951 0.930161 2.85984 0.859835C2.93016 0.789509 3.02554 0.75 3.125 0.75ZM4.25 4.125C4.25 4.02554 4.28951 3.93016 4.35984 3.85984C4.43016 3.78951 4.52554 3.75 4.625 3.75H6.375C6.47446 3.75 6.56984 3.78951 6.64017 3.85984C6.71049 3.93016 6.75 4.02554 6.75 4.125C6.75 4.22446 6.71049 4.31984 6.64017 4.39016C6.56984 4.46049 6.47446 4.5 6.375 4.5H4.625C4.52554 4.5 4.43016 4.46049 4.35984 4.39016C4.28951 4.31984 4.25 4.22446 4.25 4.125ZM4.625 6.5H6.375C6.47446 6.5 6.56984 6.53951 6.64017 6.60984C6.71049 6.68016 6.75 6.77554 6.75 6.875C6.75 6.97446 6.71049 7.06984 6.64017 7.14017C6.56984 7.21049 6.47446 7.25 6.375 7.25H4.625C4.52554 7.25 4.43016 7.21049 4.35984 7.14017C4.28951 7.06984 4.25 6.97446 4.25 6.875C4.25 6.77554 4.28951 6.68016 4.35984 6.60984C4.43016 6.53951 4.52554 6.5 4.625 6.5ZM3.39 3.89L2.39 4.89C2.31969 4.96023 2.22438 4.99967 2.125 4.99967C2.02562 4.99967 1.93031 4.96023 1.86 4.89L1.36 4.39C1.32316 4.35567 1.29361 4.31427 1.27311 4.26827C1.25261 4.22227 1.24159 4.17261 1.2407 4.12226C1.23982 4.07191 1.24908 4.0219 1.26794 3.9752C1.2868 3.92851 1.31487 3.88609 1.35048 3.85048C1.38609 3.81487 1.42851 3.7868 1.4752 3.76794C1.5219 3.74908 1.57191 3.73982 1.62226 3.7407C1.67261 3.74159 1.72227 3.75261 1.76827 3.77311C1.81427 3.79361 1.85567 3.82316 1.89 3.86L2.125 4.095L2.86 3.36C2.89433 3.32316 2.93573 3.29361 2.98173 3.27311C3.02773 3.25261 3.07739 3.24159 3.12774 3.2407C3.17809 3.23982 3.2281 3.24908 3.2748 3.26794C3.32149 3.2868 3.36391 3.31487 3.39952 3.35048C3.43513 3.38609 3.4632 3.42851 3.48206 3.4752C3.50092 3.5219 3.51018 3.57191 3.5093 3.62226C3.50841 3.67261 3.49739 3.72227 3.47689 3.76827C3.45639 3.81427 3.42684 3.85567 3.39 3.89ZM3.39 6.11C3.46023 6.18031 3.49967 6.27562 3.49967 6.375C3.49967 6.47438 3.46023 6.56969 3.39 6.64L2.39 7.64C2.31969 7.71023 2.22438 7.74967 2.125 7.74967C2.02562 7.74967 1.93031 7.71023 1.86 7.64L1.36 7.14C1.32316 7.10567 1.29361 7.06427 1.27311 7.01827C1.25261 6.97227 1.24159 6.92261 1.2407 6.87226C1.23982 6.82191 1.24908 6.7719 1.26794 6.7252C1.2868 6.67851 1.31487 6.63609 1.35048 6.60048C1.38609 6.56487 1.42851 6.5368 1.4752 6.51794C1.5219 6.49908 1.57191 6.48982 1.62226 6.4907C1.67261 6.49159 1.72227 6.50261 1.76827 6.52311C1.81427 6.54361 1.85567 6.57316 1.89 6.61L2.125 6.845L2.86 6.11C2.93031 6.03977 3.02562 6.00033 3.125 6.00033C3.22438 6.00033 3.31969 6.03977 3.39 6.11Z" fill="white"/>
</svg>
