<svg width="20" height="21" viewBox="0 0 20 21" fill="none" xmlns="http://www.w3.org/2000/svg">
<path d="M3.99857 13C4.87323 12.9974 5.71479 12.6653 6.35557 12.07L12.6156 15.647C12.4058 16.4666 12.4983 17.3343 12.876 18.0913C13.2538 18.8483 13.8915 19.4439 14.6725 19.7692C15.4535 20.0944 16.3256 20.1274 17.1289 19.8623C17.9323 19.5971 18.6133 19.0515 19.0473 18.3252C19.4813 17.599 19.6392 16.7408 19.4921 15.9076C19.345 15.0745 18.9027 14.3222 18.2463 13.7885C17.5899 13.2548 16.7632 12.9753 15.9176 13.0013C15.072 13.0273 14.264 13.357 13.6416 13.93L7.38157 10.353C7.44757 10.103 7.48357 9.84396 7.48957 9.58496L13.6396 6.06996C14.2317 6.60874 14.9912 6.92747 15.7905 6.97268C16.5898 7.01789 17.3804 6.78684 18.0295 6.31828C18.6787 5.84972 19.147 5.17217 19.3558 4.39929C19.5646 3.6264 19.5013 2.80522 19.1764 2.0735C18.8515 1.34178 18.2849 0.744037 17.5716 0.38056C16.8583 0.0170831 16.0416 -0.0900175 15.2587 0.077226C14.4758 0.244469 13.7742 0.675882 13.2716 1.29909C12.7691 1.92229 12.4961 2.69937 12.4986 3.49996C12.5026 3.78796 12.5416 4.07497 12.6156 4.35296L6.93157 7.59997C6.60195 7.09003 6.14533 6.67461 5.60659 6.39454C5.06784 6.11446 4.4655 5.97936 3.85875 6.00251C3.25199 6.02566 2.6617 6.20627 2.14586 6.52658C1.63002 6.84689 1.20638 7.29589 0.916576 7.82946C0.626767 8.36303 0.480756 8.96282 0.492886 9.56989C0.505017 10.177 0.674873 10.7704 0.985765 11.292C1.29666 11.8136 1.73789 12.2453 2.26611 12.5447C2.79434 12.8442 3.39138 13.0011 3.99857 13Z" fill="#D83A52"/>
</svg>
