<svg width="10" height="10" viewBox="0 0 10 10" fill="none" xmlns="http://www.w3.org/2000/svg">
<path d="M5 0C4.50555 0 4.0222 0.146622 3.61107 0.421326C3.19995 0.696029 2.87952 1.08648 2.6903 1.54329C2.50108 2.00011 2.45157 2.50277 2.54804 2.98773C2.6445 3.47268 2.8826 3.91814 3.23223 4.26777C3.58186 4.6174 4.02732 4.8555 4.51227 4.95196C4.99723 5.04843 5.49989 4.99892 5.95671 4.8097C6.41352 4.62048 6.80397 4.30005 7.07867 3.88893C7.35338 3.4778 7.5 2.99445 7.5 2.5C7.5 1.83696 7.23661 1.20107 6.76777 0.732233C6.29893 0.263392 5.66304 0 5 0ZM5 4C4.70333 4 4.41332 3.91203 4.16664 3.7472C3.91997 3.58238 3.72771 3.34811 3.61418 3.07403C3.50065 2.79994 3.47094 2.49834 3.52882 2.20736C3.5867 1.91639 3.72956 1.64912 3.93934 1.43934C4.14912 1.22956 4.41639 1.0867 4.70736 1.02882C4.99834 0.970944 5.29994 1.00065 5.57403 1.11418C5.84811 1.22771 6.08238 1.41997 6.2472 1.66664C6.41203 1.91332 6.5 2.20333 6.5 2.5C6.5 2.89782 6.34196 3.27936 6.06066 3.56066C5.77936 3.84196 5.39782 4 5 4ZM9.5 9.5V9C9.5 8.07174 9.13125 7.1815 8.47487 6.52513C7.8185 5.86875 6.92826 5.5 6 5.5H4C3.07174 5.5 2.1815 5.86875 1.52513 6.52513C0.868749 7.1815 0.5 8.07174 0.5 9V9.5H1.5V9C1.5 8.33696 1.76339 7.70107 2.23223 7.23223C2.70107 6.76339 3.33696 6.5 4 6.5H6C6.66304 6.5 7.29893 6.76339 7.76777 7.23223C8.23661 7.70107 8.5 8.33696 8.5 9V9.5H9.5Z" fill="white"/>
</svg>
